HIERARCHY
ROOT hip
{
  OFFSET 0 0 0
  CHANNELS 6 Xposition Yposition Zposition Zrotation Yrotation Xrotation
  JOINT abdomen
  {
    OFFSET 0 20.6881 -0.73152
    CHANNELS 3 Zrotation Xrotation Yrotation
    JOINT chest
    {
      OFFSET 0 11.7043 -0.48768
      CHANNELS 3 Zrotation Xrotation Yrotation
      JOINT neck
      {
        OFFSET 0 22.1894 -2.19456
        CHANNELS 3 Zrotation Xrotation Yrotation
        JOINT head
        {
          OFFSET -0.24384 7.07133 1.2192
          CHANNELS 3 Zrotation Xrotation Yrotation
          JOINT leftEye
          {
            OFFSET 4.14528 8.04674 8.04672
            CHANNELS 3 Zrotation Xrotation Yrotation
            End Site
            {
              OFFSET 1 0 0
            }
          }
          JOINT rightEye
          {
            OFFSET -3.6576 8.04674 8.04672
            CHANNELS 3 Zrotation Xrotation Yrotation
            End Site
            {
              OFFSET 1 0 0
            }
          }
        }
      }
      JOINT rCollar
      {
        OFFSET -2.68224 19.2634 -4.8768
        CHANNELS 3 Zrotation Xrotation Yrotation
        JOINT rShldr
        {
          OFFSET -8.77824 -1.95073 1.46304
          CHANNELS 3 Zrotation Xrotation Yrotation
          JOINT rForeArm
          {
            OFFSET -28.1742 -1.7115 0.48768
            CHANNELS 3 Zrotation Xrotation Yrotation
            JOINT rHand
            {
              OFFSET -22.5879 0.773209 7.07136
              CHANNELS 3 Zrotation Xrotation Yrotation
              JOINT rThumb1
              {
                OFFSET -1.2192 -0.487915 3.41376
                CHANNELS 3 Zrotation Xrotation Yrotation
                JOINT rThumb2
                {
                  OFFSET -3.37035 -0.52449 3.41376
                  CHANNELS 3 Zrotation Xrotation Yrotation
                  End Site
                  {
                    OFFSET -1.78271 -1.18214 1.43049
                  }
                }
              }
              JOINT rIndex1
              {
                OFFSET -7.75947 0.938293 5.60832
                CHANNELS 3 Zrotation Xrotation Yrotation
                JOINT rIndex2
                {
                  OFFSET -2.54057 -0.884171 1.56538
                  CHANNELS 3 Zrotation Xrotation Yrotation
                  End Site
                  {
                    OFFSET -1.62519 -0.234802 1.16502
                  }
                }
              }
              JOINT rMid1
              {
                OFFSET -8.24714 1.18213 3.41376
                CHANNELS 3 Zrotation Xrotation Yrotation
                JOINT rMid2
                {
                  OFFSET -3.10165 -0.590103 1.0647
                  CHANNELS 3 Zrotation Xrotation Yrotation
                  End Site
                  {
                    OFFSET -2.48547 -0.328903 0.83742
                  }
                }
              }
              JOINT rRing1
              {
                OFFSET -8.82822 0.546677 1.51678
                CHANNELS 3 Zrotation Xrotation Yrotation
                JOINT rRing2
                {
                  OFFSET -2.60934 -0.819778 -0.0198488
                  CHANNELS 3 Zrotation Xrotation Yrotation
                  End Site
                  {
                    OFFSET -2.33842 -0.294052 0.168128
                  }
                }
              }
              JOINT rPinky1
              {
                OFFSET -8.27202 -0.0477905 -0.4584
                CHANNELS 3 Zrotation Xrotation Yrotation
                JOINT rPinky2
                {
                  OFFSET -1.82734 -0.647385 -0.700984
                  CHANNELS 3 Zrotation Xrotation Yrotation
                  End Site
                  {
                    OFFSET -1.69225 -0.51767 -0.607171
                  }
                }
              }
            }
          }
        }
      }
      JOINT lCollar
      {
        OFFSET 2.68224 19.2634 -4.8768
        CHANNELS 3 Zrotation Xrotation Yrotation
        JOINT lShldr
        {
          OFFSET 8.77824 -1.95073 1.46304
          CHANNELS 3 Zrotation Xrotation Yrotation
          JOINT lForeArm
          {
            OFFSET 28.1742 -1.7115 0.48768
            CHANNELS 3 Zrotation Xrotation Yrotation
            JOINT lHand
            {
              OFFSET 22.5879 0.773209 7.07136
              CHANNELS 3 Zrotation Xrotation Yrotation
              JOINT lThumb1
              {
                OFFSET 1.2192 -0.487915 3.41376
                CHANNELS 3 Zrotation Xrotation Yrotation
                JOINT lThumb2
                {
                  OFFSET 3.37035 -0.52449 3.41376
                  CHANNELS 3 Zrotation Xrotation Yrotation
                  End Site
                  {
                    OFFSET 1.78271 -1.18214 1.43049
                  }
                }
              }
              JOINT lIndex1
              {
                OFFSET 7.75947 0.938293 5.60832
                CHANNELS 3 Zrotation Xrotation Yrotation
                JOINT lIndex2
                {
                  OFFSET 2.54057 -0.884171 1.56538
                  CHANNELS 3 Zrotation Xrotation Yrotation
                  End Site
                  {
                    OFFSET 1.62519 -0.234802 1.16502
                  }
                }
              }
              JOINT lMid1
              {
                OFFSET 8.24714 1.18213 3.41376
                CHANNELS 3 Zrotation Xrotation Yrotation
                JOINT lMid2
                {
                  OFFSET 3.10165 -0.590103 1.0647
                  CHANNELS 3 Zrotation Xrotation Yrotation
                  End Site
                  {
                    OFFSET 2.48547 -0.328903 0.83742
                  }
                }
              }
              JOINT lRing1
              {
                OFFSET 8.82822 0.546677 1.51678
                CHANNELS 3 Zrotation Xrotation Yrotation
                JOINT lRing2
                {
                  OFFSET 2.60934 -0.819778 -0.0198488
                  CHANNELS 3 Zrotation Xrotation Yrotation
                  End Site
                  {
                    OFFSET 2.33842 -0.294052 0.168128
                  }
                }
              }
              JOINT lPinky1
              {
                OFFSET 8.27202 -0.0477905 -0.4584
                CHANNELS 3 Zrotation Xrotation Yrotation
                JOINT lPinky2
                {
                  OFFSET 1.82734 -0.647385 -0.700984
                  CHANNELS 3 Zrotation Xrotation Yrotation
                  End Site
                  {
                    OFFSET 1.69225 -0.51767 -0.607171
                  }
                }
              }
            }
          }
        }
      }
    }
  }
  JOINT rButtock
  {
    OFFSET -8.77824 4.35084 1.2192
    CHANNELS 3 Zrotation Xrotation Yrotation
    JOINT rThigh
    {
      OFFSET 0 -1.70687 -2.19456
      CHANNELS 3 Zrotation Xrotation Yrotation
      JOINT rShin
      {
        OFFSET 0 -36.8199 0.73152
        CHANNELS 3 Zrotation Xrotation Yrotation
        JOINT rFoot
        {
          OFFSET 0.73152 -45.1104 -5.12064
          CHANNELS 3 Zrotation Xrotation Yrotation
          End Site
          {
            OFFSET -1.1221 -3.69964 12.103
          }
        }
      }
    }
  }
  JOINT lButtock
  {
    OFFSET 8.77824 4.35084 1.2192
    CHANNELS 3 Zrotation Xrotation Yrotation
    JOINT lThigh
    {
      OFFSET 0 -1.70687 -2.19456
      CHANNELS 3 Zrotation Xrotation Yrotation
      JOINT lShin
      {
        OFFSET 0 -36.8199 0.73152
        CHANNELS 3 Zrotation Xrotation Yrotation
        JOINT lFoot
        {
          OFFSET -0.73152 -45.1104 -5.12064
          CHANNELS 3 Zrotation Xrotation Yrotation
          End Site
          {
            OFFSET 1.1221 -3.69964 12.103
          }
        }
      }
    }
  }
}
MOTION
Frames:	4
Frame Time:	0.03333
0.06542345508933067 40.98874628543854 0.13541895896196365 -2.9115169048309326 2.5010859966278076 6.038849830627441 -2.429313898086548 14.440167427062988 4.403191089630127 2.8503756523132324 -9.353180885314941 1.2487952709197998 -5.334496021270752 14.495981216430664 -3.920431613922119 8.444658279418945 -24.94135284423828 -5.604004383087158 -0.12192508578300476 -0.03684569150209427 -0.020156247541308403 -0.003745410591363907 -0.06630512326955795 0.0840756967663765 0.11571767926216125 0.04870409518480301 -0.05621148645877838 50.94474411010742 38.70079040527344 12.22253131866455 -28.506311416625977 -32.18796920776367 70.8839111328125 0.1984241008758545 2.4810328483581543 0.07365825027227402 -0.12237092107534409 -0.15310339629650116 -0.0071235704235732555 -0.012849144637584686 -0.0017625484615564346 0.03155338019132614 0.017170175909996033 0.06770407408475876 0.026829971000552177 7.762505531311035 5.466898441314697 0.5103137493133545 -0.03916573151946068 -0.07453177869319916 -0.08831050246953964 2.8803398609161377 1.062516689300537 -0.04811530560255051 0.032447755336761475 0.01295502856373787 -0.031100841239094734 10.281510353088379 0.73586505651474 0.0605158694088459 0.039998024702072144 0.15726271271705627 0.008451299741864204 2.120812177658081 -0.8151798844337463 -0.0800638198852539 0.08997172862291336 -0.0787232294678688 -0.013843719847500324 -56.31216812133789 38.49323272705078 -24.198894500732422 28.217891693115234 -34.267818450927734 -74.39198303222656 0.5078007578849792 -19.595117568969727 3.2418599128723145 0.0061647603288292885 -0.016467610374093056 -0.002798971952870488 -0.0026720771566033363 -0.009433913044631481 -0.006889476906508207 -0.0686882734298706 -0.02914666384458542 0.008862725459039211 -7.737284183502197 5.445834636688232 -0.43922463059425354 0.06726019829511642 0.029419997707009315 -0.0010531332809478045 -2.8008780479431152 0.9073488116264343 -0.08227691799402237 0.024699848145246506 0.07352720946073532 0.009928109124302864 -10.327103614807129 0.8100948929786682 -0.05861975625157356 0.035746168345212936 -0.015115178190171719 -0.013134253211319447 -2.257190227508545 -0.6620468497276306 0.18211321532726288 -0.10054929554462433 -0.02109450474381447 0.035028647631406784 -29.49443244934082 -45.71946716308594 -25.13498306274414 -1.6848442554473877 67.09029388427734 2.2357072830200195 -5.476813316345215 -11.500462532043457 -13.568291664123535 0.030699875205755234 -0.003497479250654578 -0.11806993186473846 37.07818603515625 -45.490501403808594 29.69327163696289 1.9149421453475952 70.73509216308594 -2.647667169570923 5.130439758300781 -11.8964262008667 14.798832893371582
0.06021503359079361 58.700573444366455 0.2185317687690258 -5.49616003036499 2.4331746101379395 6.982198238372803 -2.028573989868164 14.106285095214844 4.7643656730651855 2.760139226913452 -9.05041217803955 1.3595564365386963 -5.628917694091797 14.646767616271973 -3.836916446685791 8.376416206359863 -25.081323623657227 -4.339058876037598 -0.16156025230884552 0.057404812425374985 -0.04403648152947426 0.005470300558954477 -0.015272549353539944 -0.04378649964928627 0.028922738507390022 0.054591335356235504 -0.05760939419269562 51.62527084350586 39.7068977355957 12.575443267822266 -28.68529510498047 -32.78125762939453 71.7630844116211 0.2910692095756531 3.338494300842285 -0.333340048789978 -0.09122151881456375 -0.040596455335617065 0.03394557535648346 -0.06248839944601059 0.008663295768201351 0.02357187680900097 -0.0004125818668399006 -0.04222419485449791 0.017005708068609238 7.736546516418457 5.482843399047852 0.504058837890625 -0.05441365763545036 -0.04227710887789726 0.013729729689657688 2.9354770183563232 0.9306836128234863 0.0030371220782399178 0.07952067255973816 0.12181165814399719 0.011310061439871788 10.275007247924805 0.6750369668006897 0.12073300778865814 0.060194503515958786 0.17047664523124695 0.036041855812072754 2.080674648284912 -0.8015156984329224 -0.0868801474571228 0.09113413840532303 0.04234778508543968 -0.07214506715536118 -54.12144470214844 38.804630279541016 -25.385913848876953 28.38693618774414 -34.4136848449707 -75.01403045654297 0.7706055045127869 -19.365520477294922 3.5487935543060303 0.035120777785778046 0.09965125471353531 0.012035783380270004 0.02639276720583439 0.03187176212668419 -0.021902011707425117 -0.007445930037647486 -0.08710676431655884 0.06598144769668579 -7.7032389640808105 5.457812786102295 -0.3931034207344055 0.01885363459587097 0.06340472400188446 0.006730211898684502 -2.824446439743042 0.909034252166748 -0.09018830955028534 0.0746704563498497 0.012659814208745956 -0.006513497792184353 -10.371261596679688 0.8424392938613892 -0.008859491907060146 -0.05792746692895889 0.02081475593149662 -0.00950889103114605 -2.2184109687805176 -0.61053866147995 0.19271352887153625 -0.055155325680971146 0.12489738315343857 0.02002718672156334 -27.949724197387695 -44.479522705078125 -24.27989959716797 -1.8443238735198975 66.32014465332031 2.4069361686706543 -7.223351001739502 -11.159463882446289 -15.67627239227295 -0.019702713936567307 0.026970554143190384 -0.01868419162929058 41.394840240478516 -48.336402893066406 33.26175308227539 1.9095053672790527 71.10301971435547 -2.7224507331848145 5.506952285766602 -10.500883102416992 13.929683685302734
-0.004640128463506699 64.89835977554321 0.2294662408530712 -15.770536422729492 -51.94873046875 14.468976020812988 1.859383225440979 13.184293746948242 13.641596794128418 -0.0734390988945961 -10.602174758911133 2.525895833969116 -1.2830243110656738 13.586331367492676 7.2300238609313965 6.914109706878662 -25.49197006225586 18.538068771362305 -0.07808881253004074 -0.07315842062234879 -0.02040797844529152 -0.0702207162976265 0.00025292375357821584 0.04169783741235733 -0.04895118996500969 0.05103389918804169 -0.12193045765161514 39.74466323852539 76.70049285888672 25.000944137573242 -27.280427932739258 -43.831817626953125 91.3266372680664 -16.177526473999023 -69.77931213378906 -23.24243927001953 -0.06574476510286331 -0.12729118764400482 0.004154123831540346 0.007310315500944853 -0.11079859733581543 0.0600648894906044 0.06320954114198685 0.0746464729309082 0.13376110792160034 7.654027462005615 5.501869201660156 0.49866944551467896 0.012842804193496704 -0.030516983941197395 0.04731485992670059 2.8337044715881348 1.07210111618042 0.012348741292953491 0.007556676398962736 0.08486746996641159 -0.060078587383031845 10.31030559539795 0.8255059719085693 0.06482447683811188 -0.009101671166718006 0.058174218982458115 0.05614889785647392 2.2771167755126953 -0.7780470252037048 -0.1986781656742096 0.02943442203104496 -0.0029111471958458424 -0.008855059742927551 -59.26206588745117 3.8299388885498047 -34.0677490234375 27.5105037689209 -29.071487426757812 -66.35643005371094 0.35572507977485657 20.714279174804688 -2.747385025024414 0.033841006457805634 -0.0009201114880852401 0.08673334121704102 -0.11498340219259262 -0.07095042616128922 0.1014917865395546 0.07890681177377701 0.021730707958340645 0.0019817741122096777 -7.710083484649658 5.551208972930908 -0.4516456127166748 -0.0017096594674512744 0.04368176311254501 0.0516427606344223 -2.874013900756836 1.0319886207580566 -0.07879471778869629 -0.013590519316494465 0.0336717888712883 -0.0218893401324749 -10.250978469848633 0.6766490340232849 -0.10336559265851974 0.05891542136669159 -0.044096268713474274 0.046722643077373505 -2.278602123260498 -0.6526553630828857 0.12665757536888123 -0.06347880512475967 -0.0011959662660956383 0.05244051292538643 -27.41326332092285 -27.906875610351562 -36.12049865722656 -4.000908374786377 74.72151184082031 5.689647197723389 -9.378875732421875 -21.836294174194336 -21.489084243774414 0.06670224666595459 0.12444490194320679 -0.10958879441022873 71.24280548095703 -41.31230545043945 68.85823059082031 4.476435661315918 77.25962829589844 -4.82388973236084 3.006901264190674 -4.442348957061768 7.547386169433594
-0.15855859965085983 62.10447549819946 0.16279146075248718 -14.098801612854004 -51.20909118652344 15.091073989868164 1.967961311340332 13.185731887817383 14.117774963378906 -1.17778742313385 -11.503058433532715 3.3457350730895996 -0.8359125852584839 13.6248140335083 8.576180458068848 7.931794166564941 -26.57369041442871 18.880033493041992 -0.03805021569132805 -0.03319016098976135 -0.08095131069421768 -0.0746651291847229 0.014761729165911674 0.08663440495729446 0.007875236682593822 0.08041083067655563 -0.09421255439519882 36.64955139160156 76.19402313232422 28.213773727416992 -27.320289611816406 -43.342010498046875 90.11540222167969 -17.3901424407959 -71.28193664550781 -24.349288940429688 -0.04873169958591461 -0.09305959194898605 0.04840177670121193 -0.010051258839666843 -0.11751619726419449 0.09345180541276932 0.06471573561429977 0.08952518552541733 0.09225256741046906 7.698177814483643 5.494354724884033 0.42850515246391296 0.08127935230731964 -0.0448271706700325 0.035101596266031265 2.8433196544647217 1.1467554569244385 0.03157258778810501 0.10695385187864304 0.12282191216945648 -0.09794577211141586 10.292362213134766 0.8036189079284668 0.10714399814605713 -0.00040797452675178647 0.11852753907442093 0.03141218051314354 2.2566962242126465 -0.816799521446228 -0.1214735358953476 0.12071601301431656 0.056077104061841965 -0.11207075417041779 -60.21299362182617 4.158629894256592 -33.15956497192383 28.04941177368164 -30.11795425415039 -67.66375732421875 0.22639651596546173 21.096229553222656 -2.9744813442230225 0.038156941533088684 -0.0075904750265181065 0.08469828218221664 -0.0866703912615776 -0.0629105195403099 0.05647788569331169 0.048451680690050125 0.03527742624282837 -0.009672832675278187 -7.667701721191406 5.551021575927734 -0.4368647634983063 -0.014782199636101723 0.04467853158712387 0.021466482430696487 -2.933335542678833 1.054702877998352 -0.04319347068667412 0.05428406968712807 0.0760263130068779 0.01655452698469162 -10.3258638381958 0.7000203728675842 -0.10863279551267624 0.08268699049949646 -0.0443851575255394 0.003949612379074097 -2.3079986572265625 -0.6259800791740417 0.15480349957942963 -0.09649062156677246 0.023381901904940605 0.08837268501520157 -27.94717025756836 -27.524917602539062 -37.1628532409668 -3.5091888904571533 76.46671295166016 5.618192672729492 -8.454890251159668 -21.52153968811035 -20.39030647277832 0.045811817049980164 0.08076820522546768 -0.1496758759021759 69.79801177978516 -40.96834182739258 67.9909896850586 4.467788219451904 77.15838623046875 -4.985414028167725 2.621922254562378 -3.9552218914031982 9.424915313720703
